{
	"asset":
	{
		"version": "2.0",
		"generator": "Unreal Engine 5.0.0 glTF Exporter 1.3.0"
	},
	"scene": 0,
	"accessors": [
		{
			"bufferView": 0,
			"count": 36,
			"type": "SCALAR",
			"componentType": 5121
		},
		{
			"bufferView": 1,
			"count": 24,
			"type": "VEC3",
			"componentType": 5126,
			"min": [ 0, -0.200001061, -6.51682015e-08 ],
			"max": [ 4, 2.28881831e-07, 4 ]
		},
		{
			"bufferView": 2,
			"count": 24,
			"type": "VEC3",
			"componentType": 5126
		},
		{
			"bufferView": 3,
			"count": 24,
			"type": "VEC4",
			"componentType": 5126
		},
		{
			"bufferView": 4,
			"count": 24,
			"type": "VEC2",
			"componentType": 5126
		},
		{
			"bufferView": 5,
			"count": 24,
			"type": "VEC2",
			"componentType": 5126
		}
	],
	"buffers": [
		{
			"uri": "Floor_400x400.bin",
			"byteLength": 1380
		}
	],
	"bufferViews": [
		{
			"buffer": 0,
			"byteLength": 36,
			"target": 34963
		},
		{
			"buffer": 0,
			"byteLength": 288,
			"byteOffset": 36,
			"target": 34962
		},
		{
			"buffer": 0,
			"byteLength": 288,
			"byteOffset": 324,
			"target": 34962
		},
		{
			"buffer": 0,
			"byteLength": 384,
			"byteOffset": 612,
			"target": 34962
		},
		{
			"buffer": 0,
			"byteLength": 192,
			"byteOffset": 996,
			"target": 34962
		},
		{
			"buffer": 0,
			"byteLength": 192,
			"byteOffset": 1188,
			"target": 34962
		}
	],
	"materials": [
		{
			"name": "M_Basic_Floor",
			"pbrMetallicRoughness":
			{
				"baseColorFactor": [ 0.259027004, 0.320381999, 0.383774996, 1 ],
				"metallicFactor": 0.5,
				"roughnessFactor": 0.5
			}
		}
	],
	"meshes": [
		{
			"name": "Floor_400x400",
			"primitives": [
				{
					"attributes":
					{
						"POSITION": 1,
						"NORMAL": 2,
						"TANGENT": 3,
						"TEXCOORD_0": 4,
						"TEXCOORD_1": 5
					},
					"indices": 0,
					"material": 0
				}
			]
		}
	],
	"nodes": [
		{
			"mesh": 0
		}
	],
	"scenes": [
		{
			"nodes": [ 0 ]
		}
	]
}