{
	"asset":
	{
		"version": "2.0",
		"generator": "Unreal Engine 5.0.0 glTF Exporter 1.3.0"
	},
	"scene": 0,
	"accessors": [
		{
			"bufferView": 0,
			"count": 108,
			"type": "SCALAR",
			"componentType": 5121
		},
		{
			"bufferView": 1,
			"count": 48,
			"type": "VEC3",
			"componentType": 5126,
			"min": [ -0.25, 5.24520871e-08, -0.25 ],
			"max": [ 0.25000003, 5.00000095, 0.25 ]
		},
		{
			"bufferView": 2,
			"count": 48,
			"type": "VEC3",
			"componentType": 5126
		},
		{
			"bufferView": 3,
			"count": 48,
			"type": "VEC4",
			"componentType": 5126
		},
		{
			"bufferView": 4,
			"count": 48,
			"type": "VEC2",
			"componentType": 5126
		},
		{
			"bufferView": 5,
			"count": 48,
			"type": "VEC2",
			"componentType": 5126
		}
	],
	"buffers": [
		{
			"uri": "Pillar_50x500.bin",
			"byteLength": 2796
		}
	],
	"bufferViews": [
		{
			"buffer": 0,
			"byteLength": 108,
			"target": 34963
		},
		{
			"buffer": 0,
			"byteLength": 576,
			"byteOffset": 108,
			"target": 34962
		},
		{
			"buffer": 0,
			"byteLength": 576,
			"byteOffset": 684,
			"target": 34962
		},
		{
			"buffer": 0,
			"byteLength": 768,
			"byteOffset": 1260,
			"target": 34962
		},
		{
			"buffer": 0,
			"byteLength": 384,
			"byteOffset": 2028,
			"target": 34962
		},
		{
			"buffer": 0,
			"byteLength": 384,
			"byteOffset": 2412,
			"target": 34962
		}
	],
	"materials": [
		{
			"name": "M_Basic_Wall",
			"pbrMetallicRoughness":
			{
				"baseColorFactor": [ 0.810344994, 0.787877977, 0.654682994, 1 ],
				"metallicFactor": 0,
				"roughnessFactor": 0.640708029
			}
		}
	],
	"meshes": [
		{
			"name": "Pillar_50x500",
			"primitives": [
				{
					"attributes":
					{
						"POSITION": 1,
						"NORMAL": 2,
						"TANGENT": 3,
						"TEXCOORD_0": 4,
						"TEXCOORD_1": 5
					},
					"indices": 0,
					"material": 0
				}
			]
		}
	],
	"nodes": [
		{
			"mesh": 0
		}
	],
	"scenes": [
		{
			"nodes": [ 0 ]
		}
	]
}