{
	"asset":
	{
		"version": "2.0",
		"generator": "Unreal Engine 5.0.0 glTF Exporter 1.3.0"
	},
	"scene": 0,
	"accessors": [
		{
			"bufferView": 0,
			"count": 12288,
			"type": "SCALAR",
			"componentType": 5123
		},
		{
			"bufferView": 1,
			"count": 2178,
			"type": "VEC3",
			"componentType": 5126,
			"min": [ -1, -0.000500001654, -1 ],
			"max": [ 1, 0.099999994, 1 ]
		},
		{
			"bufferView": 2,
			"count": 2178,
			"type": "VEC3",
			"componentType": 5126
		},
		{
			"bufferView": 3,
			"count": 2178,
			"type": "VEC4",
			"componentType": 5126
		},
		{
			"bufferView": 4,
			"count": 2178,
			"type": "VEC2",
			"componentType": 5126
		}
	],
	"buffers": [
		{
			"uri": "SM_AssetPlatform.bin",
			"byteLength": 129120
		}
	],
	"bufferViews": [
		{
			"buffer": 0,
			"byteLength": 24576,
			"target": 34963
		},
		{
			"buffer": 0,
			"byteLength": 26136,
			"byteOffset": 24576,
			"target": 34962
		},
		{
			"buffer": 0,
			"byteLength": 26136,
			"byteOffset": 50712,
			"target": 34962
		},
		{
			"buffer": 0,
			"byteLength": 34848,
			"byteOffset": 76848,
			"target": 34962
		},
		{
			"buffer": 0,
			"byteLength": 17424,
			"byteOffset": 111696,
			"target": 34962
		}
	],
	"materials": [
		{
			"name": "M_AssetPlatform",
			"pbrMetallicRoughness":
			{
				"baseColorFactor": [ 0.300000012, 0.300000012, 0.300000012, 1 ],
				"metallicFactor": 0,
				"roughnessFactor": 0.300000012
			}
		}
	],
	"meshes": [
		{
			"name": "SM_AssetPlatform",
			"primitives": [
				{
					"attributes":
					{
						"POSITION": 1,
						"NORMAL": 2,
						"TANGENT": 3,
						"TEXCOORD_0": 4
					},
					"indices": 0,
					"material": 0
				}
			]
		}
	],
	"nodes": [
		{
			"mesh": 0
		}
	],
	"scenes": [
		{
			"nodes": [ 0 ]
		}
	]
}