{
	"asset":
	{
		"version": "2.0",
		"generator": "Unreal Engine 5.0.0 glTF Exporter 1.3.0"
	},
	"scene": 0,
	"accessors": [
		{
			"bufferView": 0,
			"count": 612,
			"type": "SCALAR",
			"componentType": 5121
		},
		{
			"bufferView": 1,
			"count": 138,
			"type": "VEC3",
			"componentType": 5126,
			"min": [ -0.5, -0.5, -0.5 ],
			"max": [ 0.5, 0.5, 0.5 ]
		},
		{
			"bufferView": 2,
			"count": 138,
			"type": "VEC3",
			"componentType": 5126
		},
		{
			"bufferView": 3,
			"count": 138,
			"type": "VEC4",
			"componentType": 5126
		},
		{
			"bufferView": 4,
			"count": 138,
			"type": "VEC2",
			"componentType": 5126
		},
		{
			"bufferView": 5,
			"count": 138,
			"type": "VEC2",
			"componentType": 5126
		}
	],
	"buffers": [
		{
			"uri": "SM_ChamferCube.bin",
			"byteLength": 8340
		}
	],
	"bufferViews": [
		{
			"buffer": 0,
			"byteLength": 612,
			"target": 34963
		},
		{
			"buffer": 0,
			"byteLength": 1656,
			"byteOffset": 612,
			"target": 34962
		},
		{
			"buffer": 0,
			"byteLength": 1656,
			"byteOffset": 2268,
			"target": 34962
		},
		{
			"buffer": 0,
			"byteLength": 2208,
			"byteOffset": 3924,
			"target": 34962
		},
		{
			"buffer": 0,
			"byteLength": 1104,
			"byteOffset": 6132,
			"target": 34962
		},
		{
			"buffer": 0,
			"byteLength": 1104,
			"byteOffset": 7236,
			"target": 34962
		}
	],
	"materials": [
		{
			"name": "MI_Solid_Blue",
			"pbrMetallicRoughness":
			{
				"baseColorFactor": [ 0.00242800009, 0.138431996, 0.577579975, 1 ],
				"metallicFactor": 0
			}
		}
	],
	"meshes": [
		{
			"name": "SM_ChamferCube",
			"primitives": [
				{
					"attributes":
					{
						"POSITION": 1,
						"NORMAL": 2,
						"TANGENT": 3,
						"TEXCOORD_0": 4,
						"TEXCOORD_1": 5
					},
					"indices": 0,
					"material": 0
				}
			]
		}
	],
	"nodes": [
		{
			"mesh": 0
		}
	],
	"scenes": [
		{
			"nodes": [ 0 ]
		}
	]
}